<svg aria-hidden="true" style="position: absolute; width: 0; height: 0; overflow: hidden;" version="1.1" xmlns="http://www.w3.org/2000/svg" xmlns:xlink="http://www.w3.org/1999/xlink">
<defs>
<symbol id="icon-wink" viewBox="0 0 32 32">
<title>wink</title>
<path d="M16 32c8.837 0 16-7.163 16-16s-7.163-16-16-16-16 7.163-16 16 7.163 16 16 16zM16 3c7.18 0 13 5.82 13 13s-5.82 13-13 13-13-5.82-13-13 5.82-13 13-13zM16.961 22.22c4.383-0.866 7.785-2.861 9.014-5.519-0.677 5.249-5.047 9.299-10.339 9.299-3.726 0-6.996-2.009-8.84-5.030 2.2 1.721 6.079 2.056 10.165 1.249zM20 11c0-1.657 0.895-3 2-3s2 1.343 2 3c0 1.657-0.895 3-2 3s-2-1.343-2-3zM11 11.609c-1.306 0-2.417 0.489-2.829 1.172-0.111-0.183-0.171-1.005-0.171-1.211 0-0.971 1.343-1.758 3-1.758s3 0.787 3 1.758c0 0.206-0.061 1.028-0.171 1.211-0.412-0.683-1.522-1.172-2.829-1.172z"></path>
</symbol>
<symbol id="icon-instagram" viewBox="0 0 32 32">
<title>instagram</title>
<path d="M16 2.881c4.275 0 4.781 0.019 6.462 0.094 1.563 0.069 2.406 0.331 2.969 0.55 0.744 0.288 1.281 0.638 1.837 1.194 0.563 0.563 0.906 1.094 1.2 1.838 0.219 0.563 0.481 1.412 0.55 2.969 0.075 1.688 0.094 2.194 0.094 6.463s-0.019 4.781-0.094 6.463c-0.069 1.563-0.331 2.406-0.55 2.969-0.288 0.744-0.637 1.281-1.194 1.837-0.563 0.563-1.094 0.906-1.837 1.2-0.563 0.219-1.413 0.481-2.969 0.55-1.688 0.075-2.194 0.094-6.463 0.094s-4.781-0.019-6.463-0.094c-1.563-0.069-2.406-0.331-2.969-0.55-0.744-0.288-1.281-0.637-1.838-1.194-0.563-0.563-0.906-1.094-1.2-1.837-0.219-0.563-0.481-1.413-0.55-2.969-0.075-1.688-0.094-2.194-0.094-6.463s0.019-4.781 0.094-6.463c0.069-1.563 0.331-2.406 0.55-2.969 0.288-0.744 0.638-1.281 1.194-1.838 0.563-0.563 1.094-0.906 1.838-1.2 0.563-0.219 1.412-0.481 2.969-0.55 1.681-0.075 2.188-0.094 6.463-0.094zM16 0c-4.344 0-4.887 0.019-6.594 0.094-1.7 0.075-2.869 0.35-3.881 0.744-1.056 0.412-1.95 0.956-2.837 1.85-0.894 0.888-1.438 1.781-1.85 2.831-0.394 1.019-0.669 2.181-0.744 3.881-0.075 1.713-0.094 2.256-0.094 6.6s0.019 4.887 0.094 6.594c0.075 1.7 0.35 2.869 0.744 3.881 0.413 1.056 0.956 1.95 1.85 2.837 0.887 0.887 1.781 1.438 2.831 1.844 1.019 0.394 2.181 0.669 3.881 0.744 1.706 0.075 2.25 0.094 6.594 0.094s4.888-0.019 6.594-0.094c1.7-0.075 2.869-0.35 3.881-0.744 1.050-0.406 1.944-0.956 2.831-1.844s1.438-1.781 1.844-2.831c0.394-1.019 0.669-2.181 0.744-3.881 0.075-1.706 0.094-2.25 0.094-6.594s-0.019-4.887-0.094-6.594c-0.075-1.7-0.35-2.869-0.744-3.881-0.394-1.063-0.938-1.956-1.831-2.844-0.887-0.887-1.781-1.438-2.831-1.844-1.019-0.394-2.181-0.669-3.881-0.744-1.712-0.081-2.256-0.1-6.6-0.1v0z"></path>
<path d="M16 7.781c-4.537 0-8.219 3.681-8.219 8.219s3.681 8.219 8.219 8.219 8.219-3.681 8.219-8.219c0-4.537-3.681-8.219-8.219-8.219zM16 21.331c-2.944 0-5.331-2.387-5.331-5.331s2.387-5.331 5.331-5.331c2.944 0 5.331 2.387 5.331 5.331s-2.387 5.331-5.331 5.331z"></path>
<path d="M26.462 7.456c0 1.060-0.859 1.919-1.919 1.919s-1.919-0.859-1.919-1.919c0-1.060 0.859-1.919 1.919-1.919s1.919 0.859 1.919 1.919z"></path>
</symbol>
<symbol id="icon-telegram" viewBox="0 0 32 32">
<title>telegram</title>
<path d="M16 0c-8.838 0-16 7.162-16 16s7.162 16 16 16 16-7.163 16-16-7.163-16-16-16zM23.863 10.969l-2.625 12.369c-0.181 0.881-0.712 1.087-1.45 0.681l-4-2.956-1.919 1.869c-0.225 0.219-0.4 0.4-0.8 0.4-0.519 0-0.431-0.194-0.606-0.688l-1.363-4.475-3.956-1.231c-0.856-0.262-0.862-0.85 0.194-1.269l15.412-5.95c0.7-0.319 1.381 0.169 1.113 1.25z"></path>
</symbol>
<symbol id="icon-twitter" viewBox="0 0 32 32">
<title>twitter</title>
<path d="M32 7.075c-1.175 0.525-2.444 0.875-3.769 1.031 1.356-0.813 2.394-2.1 2.887-3.631-1.269 0.75-2.675 1.3-4.169 1.594-1.2-1.275-2.906-2.069-4.794-2.069-3.625 0-6.563 2.938-6.563 6.563 0 0.512 0.056 1.012 0.169 1.494-5.456-0.275-10.294-2.888-13.531-6.862-0.563 0.969-0.887 2.1-0.887 3.3 0 2.275 1.156 4.287 2.919 5.463-1.075-0.031-2.087-0.331-2.975-0.819 0 0.025 0 0.056 0 0.081 0 3.181 2.263 5.838 5.269 6.437-0.55 0.15-1.131 0.231-1.731 0.231-0.425 0-0.831-0.044-1.237-0.119 0.838 2.606 3.263 4.506 6.131 4.563-2.25 1.762-5.075 2.813-8.156 2.813-0.531 0-1.050-0.031-1.569-0.094 2.913 1.869 6.362 2.95 10.069 2.95 12.075 0 18.681-10.006 18.681-18.681 0-0.287-0.006-0.569-0.019-0.85 1.281-0.919 2.394-2.075 3.275-3.394z"></path>
</symbol>
<symbol id="icon-bubble" viewBox="0 0 32 32">
<title>bubble</title>
<path d="M16 6c-1.717 0-3.375 0.271-4.928 0.804-1.46 0.502-2.76 1.211-3.863 2.108-2.069 1.681-3.209 3.843-3.209 6.088 0 1.259 0.35 2.481 1.039 3.63 0.711 1.185 1.781 2.268 3.093 3.133 0.949 0.625 1.587 1.623 1.755 2.747 0.056 0.375 0.091 0.753 0.105 1.129 0.233-0.194 0.461-0.401 0.684-0.624 0.755-0.755 1.774-1.172 2.828-1.172 0.168 0 0.336 0.011 0.505 0.032 0.655 0.083 1.325 0.126 1.99 0.126 1.717 0 3.375-0.271 4.928-0.804 1.46-0.502 2.76-1.211 3.863-2.108 2.069-1.681 3.209-3.843 3.209-6.088s-1.14-4.407-3.209-6.088c-1.104-0.897-2.404-1.606-3.863-2.108-1.553-0.534-3.211-0.804-4.928-0.804zM16 2v0c8.837 0 16 5.82 16 13s-7.163 13-16 13c-0.849 0-1.682-0.054-2.495-0.158-3.437 3.437-7.539 4.053-11.505 4.144v-0.841c2.142-1.049 4-2.961 4-5.145 0-0.305-0.024-0.604-0.068-0.897-3.619-2.383-5.932-6.024-5.932-10.103 0-7.18 7.163-13 16-13z"></path>
</symbol>
<symbol id="icon-facebook" viewBox="0 0 32 32">
<title>facebook</title>
<path d="M19 6h5v-6h-5c-3.86 0-7 3.14-7 7v3h-4v6h4v16h6v-16h5l1-6h-6v-3c0-0.542 0.458-1 1-1z"></path>
</symbol>
<symbol id="icon-search" viewBox="0 0 32 32">
<title>search</title>
<path d="M31.715 28.953c0.381 0.381 0.381 0.999 0 1.381l-1.381 1.381c-0.382 0.381-1 0.381-1.381 0l-9.668-9.668c-0.105-0.105-0.175-0.229-0.222-0.361-1.983 1.449-4.418 2.314-7.063 2.314-6.627 0-12-5.373-12-12s5.373-12 12-12c6.627 0 12 5.373 12 12 0 2.645-0.865 5.080-2.314 7.063 0.132 0.047 0.256 0.116 0.361 0.222l9.668 9.668zM12 4c-4.418 0-8 3.582-8 8s3.582 8 8 8 8-3.582 8-8c0-4.418-3.582-8-8-8z"></path>
</symbol>
<symbol id="icon-telegram2" viewBox="0 0 32 32">
<title>telegram2</title>
<path d="M12.037 27.783c-0.952 0-0.791-0.361-1.119-1.265l-2.804-9.227 21.569-12.797z"></path>
<path d="M12.037 27.783c0.736 0 1.060-0.336 1.473-0.737l3.921-3.809-4.895-2.952z"></path>
<path d="M12.537 20.284l11.853 8.757c1.353 0.747 2.331 0.361 2.667-1.256l4.827-22.737c0.496-1.983-0.752-2.879-2.045-2.293l-28.339 10.929c-1.933 0.776-1.924 1.856-0.352 2.337l7.273 2.267 16.832-10.617c0.793-0.48 1.524-0.223 0.925 0.309z"></path>
</symbol>
<symbol id="icon-vk" viewBox="0 0 32 32">
<title>vk</title>
<path d="M15.601 25.028h1.916s0.577-0.063 0.872-0.379c0.28-0.295 0.28-0.84 0.28-0.84s-0.041-2.569 1.159-2.947c1.183-0.375 2.683 2.48 4.281 3.577 1.221 0.839 2.14 0.659 2.14 0.659l4.281-0.059s2.243-0.14 1.183-1.901c-0.081-0.14-0.601-1.3-3.161-3.68-2.683-2.481-2.323-2.081 0.901-6.383 1.959-2.62 2.76-4.221 2.5-4.901-0.221-0.64-1.68-0.481-1.68-0.481l-4.803 0.041s-0.36-0.041-0.62 0.12c-0.26 0.159-0.419 0.521-0.419 0.521s-0.763 2.039-1.781 3.76c-2.164 3.639-3.024 3.839-3.364 3.599-0.805-0.521-0.599-2.107-0.599-3.243 0-3.521 0.539-5-1.041-5.38-0.52-0.121-0.908-0.2-2.247-0.221-1.72-0.019-3.171 0.013-3.993 0.415-0.54 0.271-0.96 0.869-0.719 0.9 0.32 0.040 1.039 0.195 1.419 0.716 0.5 0.675 0.479 2.181 0.479 2.181s0.281 4.155-0.659 4.671c-0.66 0.349-1.54-0.373-3.46-3.675-0.98-1.68-1.721-3.56-1.721-3.56s-0.14-0.341-0.399-0.541c-0.303-0.22-0.743-0.3-0.743-0.3l-4.58 0.040s-0.68 0.021-0.919 0.32c-0.221 0.26-0.021 0.82-0.021 0.82s3.581 8.383 7.643 12.604c3.72 3.869 7.941 3.62 7.941 3.62l-0.067-0.073z"></path>
</symbol>
<symbol id="icon-odnoklassniki" viewBox="0 0 32 32">
<title>odnoklassniki</title>
<path d="M19.34 23.253c1.7-0.387 3.324-1.059 4.8-1.987 1.112-0.744 1.411-2.248 0.667-3.36-0.715-1.069-2.139-1.392-3.247-0.737-3.4 2.127-7.72 2.127-11.12 0-1.129-0.712-2.62-0.373-3.333 0.753 0 0.003 0 0.005-0.003 0.007-0.712 1.129-0.373 2.621 0.756 3.333l0.003 0.003c1.473 0.927 3.096 1.6 4.795 1.984l-4.62 4.62c-0.943 0.927-0.96 2.44-0.037 3.383l0.040 0.040c0.459 0.472 1.080 0.707 1.699 0.707 0.62 0 1.24-0.235 1.7-0.707l4.561-4.539 4.539 4.541c0.96 0.927 2.493 0.901 3.421-0.060 0.904-0.937 0.904-2.424 0-3.36l-4.62-4.621zM16 16.517c4.56-0.005 8.253-3.699 8.26-8.257 0-4.553-3.707-8.26-8.26-8.26s-8.26 3.707-8.26 8.263c0.007 4.56 3.701 8.253 8.26 8.256zM16 4.841c1.888 0.003 3.417 1.533 3.419 3.42 0 1.888-1.531 3.417-3.419 3.42-1.887-0.003-3.416-1.531-3.42-3.419 0.003-1.889 1.533-3.419 3.42-3.423z"></path>
</symbol>
</defs>
</svg>
